<?xml version="1.0" encoding="utf-8"?>
<!-- Generator: Adobe Illustrator 19.1.0, SVG Export Plug-In . SVG Version: 6.00 Build 0)  -->
<svg version="1.1" id="Capa_1" xmlns="http://www.w3.org/2000/svg" xmlns:xlink="http://www.w3.org/1999/xlink" x="0px" y="0px"
	 viewBox="0 0 792 612" style="enable-background:new 0 0 792 612;" xml:space="preserve">
<style type="text/css">
	.st0{fill:#F39205;}
	.st1{fill:#F39200;}
	.st2{fill:#7C7B7B;}
</style>
<path class="st0" d="M119.3,213.2h2.9l89.3,98.1l88-98.1h3.2v183.2h-36v-68c0-12.3,1.3-31.7,1.3-31.7s-10.9,16-19.5,25.6l-36,40.3
	h-3.5l-36-40.3c-8.5-9.6-19.5-25.6-19.5-25.6s1.3,19.5,1.3,31.7v68h-35.7V213.2z"/>
<path class="st0" d="M584.9,213.4h3.2l82.9,183h-39.2l-8.5-20.5h-73.6l-8.5,20.5h-36L584.9,213.4z M610,344.6l-13.1-31.5
	c-5.3-12.8-10.9-32.5-10.9-32.5s-5.3,19.7-10.7,32.5l-13.1,31.5H610z"/>
<path class="st1" d="M463.9,298.6h7.7c-3.4-32.8-30.1-58.6-63.2-60.8v7.7C437.4,247.6,460.6,270.1,463.9,298.6z"/>
<path class="st2" d="M450.7,327.5L450.7,327.5l-43.2,0v9h48.4c-10.5,17.8-29.9,29.8-52.1,29.8c-33.5,0-60.6-27.1-60.6-60.6
	c0-32,24.8-58.1,56.3-60.4v-7.7c-35.7,2.2-63.9,31.8-63.9,68c0,37.7,30.6,68.2,68.2,68.2c30.1,0,55.5-19.5,64.6-46.5H450.7z"/>
<path class="st2" d="M407.6,306.7v8.9h78.5c-4.9,41.2-39.8,73.1-82.3,73.1c-45.8,0-82.9-37.1-82.9-82.9c0-44.3,34.8-80.4,78.6-82.7
	v-8.4c0,0,0,0,0,0v-0.4h-87.2c0,0,0,89.3,0,91.5c0,50.5,41,91.5,91.5,91.5c0,0,0,0,0,0v0h91.5v-90.6H407.6z"/>
<path class="st1" d="M486.4,298.6h8.6c0,0,0,0,0,0L486.4,298.6C486.4,298.6,486.4,298.6,486.4,298.6z"/>
<path class="st1" d="M408.5,214.5v8.6c0,0,0,0,0,0L408.5,214.5C408.5,214.5,408.5,214.5,408.5,214.5z"/>
<path class="st1" d="M408.5,214.5v8.6c41.2,2.3,74.3,34.6,77.9,75.5h8.6C491.4,253,454.4,216.8,408.5,214.5z"/>
<path class="st1" d="M408.5,214.4L408.5,214.4v8.7c41.2,2.3,74.3,34.6,77.9,75.5h8.6h0.1v-84.1H408.5z"/>
</svg>
